<svg width="25" height="24" viewBox="0 0 25 24" fill="none" xmlns="http://www.w3.org/2000/svg">
<path d="M20.6443 6H15.8443C15.8443 4.343 14.5013 3 12.8443 3C11.1873 3 9.84434 4.343 9.84434 6H5.04434C4.71334 6 4.44434 6.269 4.44434 6.6V8.4C4.44434 8.731 4.71334 9 5.04434 9H5.64434L7.18634 19.716C7.28934 20.445 7.90834 20.99 8.64434 21H16.9483C17.6913 20.998 18.3203 20.451 18.4243 19.716L19.9603 9H20.6443C20.9753 9 21.2443 8.731 21.2443 8.4V6.6C21.2443 6.269 20.9753 6 20.6443 6ZM10.7803 18.042H10.7083C10.2323 18.073 9.81934 17.714 9.78434 17.238L9.40034 11.778C9.36934 11.302 9.72834 10.889 10.2043 10.854H10.2763C10.7523 10.823 11.1653 11.182 11.2003 11.658L11.5843 17.118C11.6153 17.594 11.2563 18.007 10.7803 18.042ZM15.8983 17.244C15.8633 17.72 15.4503 18.079 14.9743 18.048H14.9023C14.4263 18.013 14.0673 17.6 14.0983 17.124L14.4823 11.664C14.5173 11.188 14.9303 10.829 15.4063 10.86H15.4783C15.9543 10.895 16.3133 11.308 16.2823 11.784L15.8983 17.244ZM12.8443 4.8C13.5073 4.8 14.0443 5.337 14.0443 6H11.6443C11.6443 5.337 12.1813 4.8 12.8443 4.8Z" fill="#5D3EBC"/>
</svg>
