<svg width="12" height="12" viewBox="0 0 12 12" fill="none" xmlns="http://www.w3.org/2000/svg">
<path d="M5.99374 5.3054L5.64019 4.95184L1.34724 0.658895C1.34723 0.658877 1.34721 0.65886 1.34719 0.658842C1.25343 0.565139 1.1263 0.512502 0.993744 0.512502C0.861212 0.512502 0.734105 0.565119 0.640351 0.658788C0.640333 0.658806 0.640315 0.658824 0.640298 0.658842C0.64028 0.65886 0.640262 0.658877 0.640244 0.658895C0.546575 0.752649 0.493958 0.879757 0.493958 1.01229C0.493958 1.14484 0.546595 1.27198 0.640298 1.36573M5.99374 5.3054L0.640298 1.36573M5.99374 5.3054L6.3473 4.95184M5.99374 5.3054L6.3473 4.95184M0.640298 1.36573L0.286769 1.71926L0.640351 1.36579C0.640333 1.36577 0.640315 1.36575 0.640298 1.36573ZM6.3473 4.95184L10.6403 0.658842L10.6404 0.658895M6.3473 4.95184L10.6404 0.658895M10.6404 0.658895L10.6464 0.652645M10.6404 0.658895L10.6464 0.652645M10.6464 0.652645C10.6925 0.604889 10.7477 0.566798 10.8087 0.540593C10.8697 0.514389 10.9353 0.500596 11.0017 0.500019C11.0681 0.499442 11.1339 0.512093 11.1954 0.537233C11.2568 0.562373 11.3126 0.5995 11.3596 0.646447C11.4065 0.693393 11.4437 0.749218 11.4688 0.810666C11.4939 0.872118 11.5066 0.937958 11.506 1.00434C11.5054 1.07073 11.4916 1.13634 11.4654 1.19735C11.4392 1.25835 11.4011 1.31352 11.3534 1.35964L11.3533 1.35959M10.6464 0.652645L11.3533 1.35959M11.3533 1.35959L11.3472 1.36573M11.3533 1.35959L11.3472 1.36573M11.3472 1.36573L7.05419 5.65873L6.70064 6.01229M11.3472 1.36573L6.70064 6.01229M6.70064 6.01229L7.05419 6.36584M6.70064 6.01229L7.05419 6.36584M7.05419 6.36584L11.3436 10.6553C11.4331 10.7493 11.4826 10.8745 11.4814 11.0043C11.4803 11.1354 11.4277 11.2608 11.335 11.3536C11.2423 11.4463 11.1169 11.4988 10.9858 11.5C10.8559 11.5011 10.7307 11.4516 10.6367 11.3622L6.3473 7.07273L5.99374 6.71918M7.05419 6.36584L5.99374 6.71918M5.99374 6.71918L5.64019 7.07273M5.99374 6.71918L5.64019 7.07273M5.64019 7.07273L1.35078 11.3621L5.64019 7.07273ZM0.643893 10.6552C0.644721 10.6544 0.645553 10.6535 0.646388 10.6526L0.286744 10.3053L0.640298 10.6588L0.643893 10.6552Z" fill="white" stroke="white"/>
</svg>
