<svg width="18" height="18" viewBox="0 0 18 18" fill="none" xmlns="http://www.w3.org/2000/svg">
<path d="M16.8 3H12C12 1.343 10.657 0 8.99998 0C7.34298 0 5.99998 1.343 5.99998 3H1.19998C0.868976 3 0.599976 3.269 0.599976 3.6V5.4C0.599976 5.731 0.868976 6 1.19998 6H1.79998L3.34198 16.716C3.44498 17.445 4.06398 17.99 4.79998 18H13.104C13.847 17.998 14.476 17.451 14.58 16.716L16.116 6H16.8C17.131 6 17.4 5.731 17.4 5.4V3.6C17.4 3.269 17.131 3 16.8 3ZM6.93598 15.042H6.86398C6.38798 15.073 5.97498 14.714 5.93998 14.238L5.55598 8.778C5.52498 8.302 5.88398 7.889 6.35998 7.854H6.43198C6.90798 7.823 7.32098 8.182 7.35598 8.658L7.73998 14.118C7.77098 14.594 7.41198 15.007 6.93598 15.042ZM12.054 14.244C12.019 14.72 11.606 15.079 11.13 15.048H11.058C10.582 15.013 10.223 14.6 10.254 14.124L10.638 8.664C10.673 8.188 11.086 7.829 11.562 7.86H11.634C12.11 7.895 12.469 8.308 12.438 8.784L12.054 14.244ZM8.99998 1.8C9.66298 1.8 10.2 2.337 10.2 3H7.79998C7.79998 2.337 8.33698 1.8 8.99998 1.8Z" fill="white"/>
</svg>
